<svg id="Capa_1" data-name="Capa 1" xmlns="http://www.w3.org/2000/svg" viewBox="0 0 490 490"><title>2</title><path id="_Составной_контур_" data-name="&lt;Составной контур&gt;" d="M460,170h15a15,15,0,0,0,15-15V75a15,15,0,0,0-11.21-14.51L249.11.57A15,15,0,0,0,245.06,0h-.12a15.05,15.05,0,0,0-4.05.57L11.21,60.49A15,15,0,0,0,0,75v80a15,15,0,0,0,15,15H30V340H15A15,15,0,0,0,0,355V475a15,15,0,0,0,15,15H475a15,15,0,0,0,15-15V355a15,15,0,0,0-15-15H460ZM370,63.11V140H281.21l79.35-79.35ZM430,170v78.79L351.21,170ZM260,34.42l66.92,17.46L260,118.79Zm-30,0v84.37L163.08,51.87ZM120,63.11l9.44-2.46L208.79,140H120ZM138.79,170,60,248.79V170ZM30,86.59,90,70.94V140H30ZM60,460H30V370H60ZM400,355V460H90V355a15,15,0,0,0-15-15H60V291.21L181.21,170H308.79L430,291.21V340H415A15,15,0,0,0,400,355Zm60,105H430V370h30ZM445,140H400V70.94l60,15.65V140Z" transform="translate(0 0)" style="fill:#fff"/></svg>