<svg id="Capa_1" data-name="Capa 1" xmlns="http://www.w3.org/2000/svg" viewBox="0 0 390.09 412.33"><title>3</title><path d="M390.95,349.57h-23V145.39A38.86,38.86,0,0,0,390.73,110V10.27A10.27,10.27,0,0,0,380.47,0H31.86A10.27,10.27,0,0,0,21.6,10.27V110a38.86,38.86,0,0,0,22.82,35.35V349.57h-23a10.27,10.27,0,0,0-10.27,10.27v42.23a10.27,10.27,0,0,0,10.27,10.27H390.95a10.27,10.27,0,0,0,10.27-10.27V359.84A10.26,10.26,0,0,0,390.95,349.57Zm-57.32-329H370.2V110a18.29,18.29,0,1,1-36.57,0Zm-58.3,0H311.9V110a18.29,18.29,0,1,1-36.57,0Zm-58.3,0H253.6V110A18.29,18.29,0,1,1,217,110Zm-58.3,0H195.3V110a18.29,18.29,0,1,1-36.57,0V20.53Zm-58.3,0H137V110a18.29,18.29,0,1,1-36.57,0V20.53Zm-58.3,0H78.7V110a18.28,18.28,0,1,1-36.57,0ZM64.94,148.58a38.77,38.77,0,0,0,24.62-12.94,38.77,38.77,0,0,0,58.3,0,38.77,38.77,0,0,0,58.3,0,38.76,38.76,0,0,0,58.3,0,38.76,38.76,0,0,0,58.3,0,38.77,38.77,0,0,0,24.61,12.94v201H64.94ZM380.68,391.8h-349V370.11h349V391.8Z" transform="translate(-11.12)" style="fill:#fff"/><path d="M317.69,178.63H94.64A10.27,10.27,0,0,0,84.37,188.9V289.84a10.27,10.27,0,0,0,10.27,10.27H317.69A10.27,10.27,0,0,0,328,289.84V188.9A10.27,10.27,0,0,0,317.69,178.63ZM104.9,199.16H138.2v80.42H104.9Zm202.52,80.42H158.73V199.16h148.7v80.42Z" transform="translate(-11.12)" style="fill:#fff"/></svg>