<svg id="Слой_1" data-name="Слой 1" xmlns="http://www.w3.org/2000/svg" viewBox="0 0 316.11 198.09"><title>1</title><path d="M309.11,118.86H169.79V95.66h3.36a7,7,0,0,0,7-7V66a7,7,0,0,0-7-7H7a7,7,0,0,0-7,7V88.66a7,7,0,0,0,7,7h3.36V245.59a7,7,0,0,0,7,7H162.79a7,7,0,0,0,7-7V155.51h112.5v90.08a7,7,0,0,0,14,0V155.51h12.82a7,7,0,0,0,7-7V125.86A7,7,0,0,0,309.11,118.86Zm-7,22.65H169.79v-8.65H302.11ZM14,81.66V73H166.15v8.65H14Zm10.36,14H155.79V238.59H114.5V189.43a7,7,0,0,0-7-7H72.65a7,7,0,0,0-7,7v49.16H24.36ZM100.5,238.59H79.64V196.43H100.5Z" transform="translate(0 -59.01)" style="fill:#fff"/><path d="M263.78,199.82V186.16a17,17,0,0,0-17-17H207a17,17,0,0,0-17,17v13.65A15.15,15.15,0,0,0,180,214v27.79a7,7,0,0,0,7,7h4v1.29a7,7,0,0,0,14,0v-1.29h43.77v1.29a7,7,0,0,0,14,0v-1.29h4a7,7,0,0,0,7-7V214A15.15,15.15,0,0,0,263.78,199.82Zm-69.81,35V214a1.14,1.14,0,0,1,1.13-1.13h63.52a1.14,1.14,0,0,1,1.13,1.13v20.79Zm13-51.65h39.82a3,3,0,0,1,3,3v12.73H203.95V186.16a3,3,0,0,1,3-3Z" transform="translate(0 -59.01)" style="fill:#fff"/><path d="M204.43,220a7,7,0,1,0,4.95,2.05A7,7,0,0,0,204.43,220Z" transform="translate(0 -59.01)" style="fill:#fff"/><path d="M249.29,220a7,7,0,1,0,4.95,2.05,7,7,0,0,0-4.95-2.05Z" transform="translate(0 -59.01)" style="fill:#fff"/><path d="M56.06,116.1a7,7,0,0,0-7,7v14.76a7,7,0,0,0,14,0V123.1A7,7,0,0,0,56.06,116.1Z" transform="translate(0 -59.01)" style="fill:#fff"/><path d="M90.07,144.86a7,7,0,0,0,7-7V123.1a7,7,0,0,0-14,0v14.76A7,7,0,0,0,90.07,144.86Z" transform="translate(0 -59.01)" style="fill:#fff"/><path d="M124.09,144.86a7,7,0,0,0,7-7V123.1a7,7,0,0,0-14,0v14.76A7,7,0,0,0,124.09,144.86Z" transform="translate(0 -59.01)" style="fill:#fff"/></svg>