<svg id="Layer_1" data-name="Layer 1" xmlns="http://www.w3.org/2000/svg" viewBox="0 0 512 456.41"><title>4</title><path d="M506.55,208.06,263.86,30.37a13.3,13.3,0,0,0-15.72,0L5.45,208.06a13.3,13.3,0,0,0,15.72,21.47L256,57.59,490.84,229.53a13.3,13.3,0,0,0,15.72-21.47Z" transform="translate(0 -27.8)" style="fill:#fff"/><path d="M442.25,232.54a13.3,13.3,0,0,0-13.3,13.3V457.59H322.52V342a66.52,66.52,0,0,0-133,0V457.6H83.06V245.85a13.3,13.3,0,0,0-26.61,0V470.9a13.3,13.3,0,0,0,13.3,13.3h133A13.3,13.3,0,0,0,216,471.94a10,10,0,0,0,.05-1V342a39.91,39.91,0,1,1,79.83,0V470.9a9.76,9.76,0,0,0,.05,1,13.3,13.3,0,0,0,13.25,12.28h133a13.3,13.3,0,0,0,13.3-13.3V245.85A13.3,13.3,0,0,0,442.25,232.54Z" transform="translate(0 -27.8)" style="fill:#fff"/></svg>